<svg xmlns="http://www.w3.org/2000/svg" width="90.476" height="90.476" viewBox="0 0 90.476 90.476">
  <g id="Group_76" data-name="Group 76" transform="translate(-153.82 -57.262)">
    <g id="Subtraction_1" data-name="Subtraction 1" transform="translate(168.091 69.492)" fill="none">
      <path d="M30.967,66.017h0a36.679,36.679,0,0,0-3.05-12.179,36.412,36.412,0,0,0-2.941-5.36,36.1,36.1,0,0,0-3.756-4.738,35.557,35.557,0,0,0-4.473-4.016,34.816,34.816,0,0,0-5.092-3.194A33.815,33.815,0,0,0,0,33.01a33.815,33.815,0,0,0,11.654-3.519A34.825,34.825,0,0,0,16.747,26.3a35.552,35.552,0,0,0,4.473-4.016,36.1,36.1,0,0,0,3.756-4.738,36.41,36.41,0,0,0,2.941-5.36A36.679,36.679,0,0,0,30.967,0a36.677,36.677,0,0,0,3.051,12.182,36.413,36.413,0,0,0,2.941,5.36,36.1,36.1,0,0,0,3.756,4.738A35.553,35.553,0,0,0,45.188,26.3a34.817,34.817,0,0,0,5.092,3.194A33.816,33.816,0,0,0,61.935,33.01a33.814,33.814,0,0,0-11.654,3.519,34.82,34.82,0,0,0-5.092,3.194,35.557,35.557,0,0,0-4.473,4.016,36.165,36.165,0,0,0-6.7,10.1A36.681,36.681,0,0,0,30.967,66.017Z" stroke="none"/>
      <path d="M 30.96734046936035 57.77278518676758 C 31.4291877746582 56.22661972045898 31.98956680297852 54.7098503112793 32.64687347412109 53.22881317138672 C 33.50757217407227 51.28945159912109 34.53811264038086 49.41162109375 35.70988464355469 47.6474723815918 C 36.87224197387695 45.89750289916992 38.18857192993164 44.23684310913086 39.6223030090332 42.71160125732422 C 41.05545425415039 41.18698120117188 42.62399291992188 39.77850341796875 44.28437423706055 38.52528381347656 C 45.95684432983398 37.26294326782227 47.74423217773438 36.14192199707031 49.5969123840332 35.19334411621094 C 51.30024337768555 34.32125854492188 53.05697250366211 33.59245300292969 54.85760116577148 33.00978469848633 C 53.05697631835938 32.4271240234375 51.30020904541016 31.69832038879395 49.59690475463867 30.82626152038574 C 47.74423217773438 29.87768173217773 45.95683288574219 28.75664138793945 44.28436279296875 27.49429321289062 C 42.6239128112793 26.24101257324219 41.05536270141602 24.83251190185547 39.622314453125 23.30794143676758 C 38.18872451782227 21.78289222717285 36.87240219116211 20.12224197387695 35.70987319946289 18.37209320068359 C 34.53826522827148 16.6081714630127 33.50772476196289 14.7303524017334 32.64688491821289 12.79080200195312 C 31.98950386047363 11.30965042114258 31.4291877746582 9.79314136505127 30.96731758117676 8.246872901916504 C 30.50546264648438 9.793143272399902 29.94518089294434 11.30960559844971 29.28782272338867 12.79077243804932 C 28.42721366882324 14.72996234893799 27.39667320251465 16.60779190063477 26.22482299804688 18.37211227416992 C 25.0622730255127 20.1223316192627 23.74597358703613 21.78298187255859 22.31252288818359 23.30790138244629 C 20.87950325012207 24.83245277404785 19.31096267700195 26.24096298217773 17.65043258666992 27.49431228637695 C 15.97770309448242 28.75679206848145 14.19032382965088 29.87781143188477 12.33792304992676 30.82627296447754 C 10.63471508026123 31.69829940795898 8.877835273742676 32.42714309692383 7.077243328094482 33.00979614257812 C 8.877837181091309 33.59245681762695 10.63468265533447 34.32129669189453 12.33791351318359 35.19334411621094 C 14.19046306610107 36.14182281494141 15.97786331176758 37.26284408569336 17.65048408508301 38.52529144287109 C 19.31088256835938 39.77856063842773 20.87941360473633 41.18704223632812 22.31253433227539 42.71163177490234 C 23.74648284912109 44.2371940612793 25.06278419494629 45.89785385131836 26.224853515625 47.64751052856445 C 27.39677429199219 49.41198348999023 28.42730331420898 51.28980255126953 29.28782272338867 53.22880172729492 C 29.94511604309082 54.70980072021484 30.50550651550293 56.22662734985352 30.96734046936035 57.77278518676758 M 30.96748352050781 66.01678466796875 L 30.96710395812988 66.01678466796875 C 30.65049362182617 61.78235244750977 29.62426376342773 57.68455123901367 27.91678428649902 53.8372917175293 C 27.0901927947998 51.9747428894043 26.10049438476562 50.17146301269531 24.97534370422363 48.47740173339844 C 23.85942268371582 46.7972412109375 22.59573364257812 45.20305252075195 21.21956443786621 43.73897171020508 C 19.8443431854248 42.27597045898438 18.33947372436523 40.9246711730957 16.74681282043457 39.7225341796875 C 15.14312362670898 38.51211166381836 13.42978382110596 37.43753051757812 11.65432357788086 36.52852249145508 C 7.992063522338867 34.65346145629883 4.070923328399658 33.46960067749023 -1.647949284233619e-05 33.00979232788086 C 4.070573329925537 32.55000305175781 7.99164342880249 31.36635208129883 11.65432357788086 29.49109268188477 C 13.42978382110596 28.58203315734863 15.14312362670898 27.50740242004395 16.74681282043457 26.29704284667969 C 18.33947372436523 25.09491157531738 19.8443431854248 23.74362182617188 21.21956443786621 22.28056144714355 C 22.59573364257812 20.81657218933105 23.85931396484375 19.22235298156738 24.97534370422363 17.54217147827148 C 26.10049438476562 15.84816265106201 27.09016418457031 14.04489231109619 27.91678428649902 12.18230247497559 C 29.6246337890625 8.334142684936523 30.65100288391113 4.235372543334961 30.96730422973633 2.333984411961865e-06 C 31.28358268737793 4.235012531280518 32.3098030090332 8.333722114562988 34.01791381835938 12.18230247497559 C 34.8445930480957 14.04489231109619 35.83423233032227 15.84823226928711 36.9593620300293 17.54217147827148 C 38.07541275024414 19.22235298156738 39.33905410766602 20.81657218933105 40.71524429321289 22.28056144714355 C 42.09047317504883 23.74362182617188 43.59533309936523 25.09491157531738 45.18802261352539 26.29704284667969 C 46.79168319702148 27.50746154785156 48.50502395629883 28.58203315734863 50.28051376342773 29.49109268188477 C 53.9428825378418 31.36615180969238 57.86398315429688 32.55000305175781 61.93498229980469 33.00979232788086 C 57.86433410644531 33.46950149536133 53.94320297241211 34.65326309204102 50.28051376342773 36.52852249145508 C 48.50511169433594 37.43753051757812 46.79171371459961 38.51211166381836 45.18802261352539 39.7225341796875 C 43.59533309936523 40.9246711730957 42.09047317504883 42.27597045898438 40.71524429321289 43.73897171020508 C 39.33905410766602 45.2029914855957 38.07541275024414 46.79716110229492 36.9593620300293 48.47740173339844 C 35.83419418334961 50.17140197753906 34.84452438354492 51.9747428894043 34.01791381835938 53.8372917175293 C 32.31044387817383 57.68455123901367 31.28413391113281 61.78235244750977 30.96748352050781 66.01678466796875 Z" stroke="none" fill="#dead68"/>
    </g>
    <g id="Subtraction_2" data-name="Subtraction 2" transform="translate(200.501 57.262) rotate(45)" fill="none">
      <path d="M30.968,66.017h0a36.679,36.679,0,0,0-3.05-12.179,36.413,36.413,0,0,0-2.941-5.36,36.1,36.1,0,0,0-3.756-4.738,35.559,35.559,0,0,0-4.473-4.016,34.819,34.819,0,0,0-5.093-3.194A33.815,33.815,0,0,0,0,33.01a33.815,33.815,0,0,0,11.654-3.519A34.826,34.826,0,0,0,16.747,26.3a35.548,35.548,0,0,0,4.473-4.016,36.1,36.1,0,0,0,3.756-4.738,36.411,36.411,0,0,0,2.941-5.36A36.678,36.678,0,0,0,30.967,0a36.677,36.677,0,0,0,3.051,12.182,36.413,36.413,0,0,0,2.941,5.36,36.1,36.1,0,0,0,3.756,4.738A35.553,35.553,0,0,0,45.188,26.3a34.818,34.818,0,0,0,5.093,3.194A33.816,33.816,0,0,0,61.935,33.01a33.814,33.814,0,0,0-11.654,3.519,34.82,34.82,0,0,0-5.093,3.194,35.557,35.557,0,0,0-4.473,4.016,36.165,36.165,0,0,0-6.7,10.1A36.68,36.68,0,0,0,30.968,66.017Z" stroke="none"/>
      <path d="M 30.9676685333252 57.77271270751953 C 31.42951202392578 56.22654342651367 31.98988151550293 54.70978927612305 32.64719009399414 53.22873306274414 C 33.50791931152344 51.28935623168945 34.53845977783203 49.41153335571289 35.71020126342773 47.64743423461914 C 36.87245941162109 45.8975830078125 38.18878936767578 44.23691558837891 39.62263107299805 42.71155548095703 C 41.05585098266602 41.18689346313477 42.6243896484375 39.77843475341797 44.2846794128418 38.52529525756836 C 45.95716094970703 37.26296615600586 47.74457168579102 36.1419563293457 49.59725189208984 35.19338607788086 C 51.30058288574219 34.32130432128906 53.05728530883789 33.59251403808594 54.85791778564453 33.00985717773438 C 53.05728530883789 32.42719268798828 51.30053329467773 31.69839286804199 49.59719848632812 30.82632446289062 C 47.74457931518555 29.87778472900391 45.95716857910156 28.75674438476562 44.28459930419922 27.49435424804688 C 42.62416839599609 26.2410945892334 41.05561828613281 24.83259391784668 39.62255859375 23.30802536010742 C 38.18907165527344 21.78312492370605 36.87273025512695 20.12247467041016 35.71007919311523 18.37216377258301 C 34.53845977783203 16.60827445983887 33.50791168212891 14.73046493530273 32.64704895019531 12.79088497161865 C 31.98966598510742 11.30974006652832 31.42933464050293 9.793208122253418 30.96745872497559 8.246942520141602 C 30.50560569763184 9.793212890625 29.94533157348633 11.30965709686279 29.2879695892334 12.79083442687988 C 28.42729949951172 14.73010444641113 27.39677047729492 16.60792541503906 26.2249698638916 18.37213516235352 C 25.06237983703613 20.12241554260254 23.74608039855957 21.78305435180664 22.31267929077148 23.30787467956543 C 20.87961006164551 24.83250427246094 19.31105995178223 26.24100494384766 17.65059089660645 27.49426460266113 C 15.97799015045166 28.75664520263672 14.19062042236328 29.87766456604004 12.33806991577148 30.82619476318359 C 10.63484382629395 31.69821739196777 8.878005981445312 32.42703628540039 7.077409744262695 33.00968551635742 C 8.878013610839844 33.59235000610352 10.63486576080322 34.32119369506836 12.33810997009277 35.19324493408203 C 14.19062995910645 36.1417236328125 15.97803974151611 37.26274490356445 17.65069007873535 38.52520370483398 C 19.31097030639648 39.77834320068359 20.8794994354248 41.18681335449219 22.31277084350586 42.7115364074707 C 23.74671936035156 44.23710632324219 25.06302070617676 45.89777374267578 26.22513008117676 47.64741516113281 C 27.39702987670898 49.41184616088867 28.42757034301758 51.28966522216797 29.28811073303223 53.22870635986328 C 29.94541358947754 54.70969009399414 30.50582695007324 56.22655868530273 30.9676685333252 57.77271270751953 M 30.96784973144531 66.01666259765625 L 30.96744918823242 66.01666259765625 C 30.65082931518555 61.7822265625 29.62458992004395 57.68444442749023 27.91707992553711 53.83720397949219 C 27.09048080444336 51.97465515136719 26.10077095031738 50.17135620117188 24.97562026977539 48.47731399536133 C 23.85967063903809 46.79715347290039 22.59597969055176 45.20297622680664 21.21980094909668 43.73886489868164 C 19.84457015991211 42.27589416503906 18.3397102355957 40.92457580566406 16.74703025817871 39.72244644165039 C 15.14332962036133 38.51203536987305 13.42996025085449 37.43743515014648 11.65451049804688 36.52842330932617 C 7.992219924926758 34.65335464477539 4.071060180664062 33.46948623657227 0.0001100317385862581 33.0096549987793 C 4.070710182189941 32.54989624023438 7.991789817810059 31.36625480651855 11.65447998046875 29.49101448059082 C 13.42992973327637 28.58195495605469 15.14330005645752 27.50734519958496 16.7469596862793 26.29699516296387 C 18.33964920043945 25.09489440917969 19.84450912475586 23.74360466003418 21.2197093963623 22.28054428100586 C 22.59589004516602 20.81659507751465 23.8594799041748 19.22235488891602 24.97549057006836 17.54219436645508 C 26.10065078735352 15.84819507598877 27.09029960632324 14.04493427276611 27.91692924499512 12.18235492706299 C 29.62476921081543 8.33421516418457 30.6511402130127 4.235454559326172 30.96740913391113 0.0001047045880113728 C 31.28371047973633 4.235124588012695 32.30995178222656 8.33381462097168 34.01808166503906 12.18237495422363 C 34.84476852416992 14.04496479034424 35.83441162109375 15.84829425811768 36.95956039428711 17.54223442077637 C 38.07561874389648 19.2223949432373 39.33926010131836 20.81665420532227 40.71546936035156 22.28062438964844 C 42.0907096862793 23.74368476867676 43.5955810546875 25.09498405456543 45.18825912475586 26.29710388183594 C 46.79196166992188 27.50752449035645 48.50529861450195 28.58209419250488 50.28081130981445 29.49115562438965 C 53.94321060180664 31.36622428894043 57.86431884765625 32.55009460449219 61.93532943725586 33.00988388061523 C 57.86466979980469 33.46957397460938 53.94353103637695 34.65332412719727 50.28084182739258 36.528564453125 C 48.50542068481445 37.43757629394531 46.79201889038086 38.51214599609375 45.18832015991211 39.72255325317383 C 43.59563827514648 40.92466354370117 42.09077835083008 42.27597427368164 40.71556091308594 43.73893356323242 C 39.33935928344727 45.20297622680664 38.07571029663086 46.79712295532227 36.95969009399414 48.47735595703125 C 35.83451843261719 50.17134475708008 34.8448486328125 51.97468566894531 34.01823043823242 53.83722305297852 C 32.3107795715332 57.68446350097656 31.28446960449219 61.7822265625 30.96784973144531 66.01666259765625 Z" stroke="none" fill="#dead68"/>
    </g>
  </g>
</svg>
